<?xml version="1.0" encoding="utf-8"?>
<!-- Generator: Adobe Illustrator 21.0.2, SVG Export Plug-In . SVG Version: 6.00 Build 0)  -->
<svg version="1.1" id="Layer_1" xmlns="http://www.w3.org/2000/svg" xmlns:xlink="http://www.w3.org/1999/xlink" x="0px" y="0px"
	 viewBox="0 0 801.8 124.7" style="enable-background:new 0 0 801.8 124.7;" xml:space="preserve">
<style type="text/css">
	.st0{fill:#F1F1F0;}
</style>
<g>
	<g>
		<g>
			<path class="st0" d="M68.4,40.1c-2.1-9.7-7.6-32.5-29.2-32.5c-11.9,0-21.9,7.6-21.9,19.2c0,12.5,10.9,17.3,21.3,21.6
				c12.5,5.2,35.9,15.8,35.9,39.5c0,16.1-11.3,36.8-44.1,36.8c-12.8,0-21-3.3-28.6-7C0.6,102.8,0.3,92.2,0,83.3h5.8
				c11.3,32.2,12.5,35,25.2,35c17.3,0,27.7-13.1,27.7-23.1c0-15.5-15.5-21.9-24.9-25.9C16.1,62,1.5,53.2,1.5,35.6
				c0-14.9,11.3-34.4,41.1-34.4c11.9,0,21.3,3,27.7,5.5c1.5,8.5,1.8,12.2,4.6,33.5H68.4z"/>
			<path class="st0" d="M195.9,37.1c0-6.1,0.6-26.8-22.8-26.8c-9.1,0-23.4,3-23.4,8.2c0,1.2,1.5,5.5,1.5,9.7
				c0,5.2-5.2,12.5-12.5,12.5c-4.3,0-6.7-4-6.7-8.2c0-17.9,27.1-30.7,52.6-30.7c23.1,0,29.5,13.7,29.5,30.4c0,9.7-0.6,52-0.6,60.5
				c0,6.4,0,18.6,10.3,18.6c3.3,0,6.7-1.2,9.4-3.3l2.4,5.8c-5.8,5.2-12.5,10.6-22.5,10.6c-10.9,0-17.6-6.7-18.2-16.4
				c-22.5,12.5-31,16.4-41.4,16.4c-17.6,0-24.9-12.5-24.9-23.4c0-14.6,14-22.5,32.9-29.2c5.5-1.8,29.5-9.4,34.4-10.9V37.1z
				 M195.6,67.2c-16.7,4.9-34.4,10.3-41.7,15.2c-5.2,3.6-7.9,6.7-7.9,12.2c0,8.2,6.7,17.6,18.2,17.6c10.6,0,19.8-5.2,30.7-11.3
				L195.6,67.2z"/>
		</g>
		<g>
			<path class="st0" d="M330.6,81.5c-25.9,42.9-42.6,42.9-43.8,42.9c-6.4,0-7.3-7.6-7.3-9.1c0-7,30.4-87,30.4-95.5
				c0-0.6-1.5-0.6-2.1-0.6c-0.6,0-7.9,3-24.9,25.9l-2.7-5.2C299.9,10.3,318.5,3,321.8,3c4,0,7.9,3,7.9,7.6c0,1.8-3.6,12.2-4,13.1
				c-5.8,17.6-15.8,45-23.1,68.1c-1.8,6.1-3.6,12.2-3.6,14c0,0.6,0.3,1.2,0.9,1.2c0.6,0,1.5-0.6,4.3-2.7
				c6.7-4.6,11.9-11.9,22.2-26.2L330.6,81.5z"/>
		</g>
		<g>
			<path class="st0" d="M451.7,40.1c-2.1-9.7-7.6-32.5-29.2-32.5c-11.9,0-21.9,7.6-21.9,19.2c0,12.5,10.9,17.3,21.3,21.6
				c12.5,5.2,35.9,15.8,35.9,39.5c0,16.1-11.3,36.8-44.1,36.8c-12.8,0-21-3.3-28.6-7c-1.2-14.9-1.5-25.6-1.8-34.4h5.8
				c11.3,32.2,12.5,35,25.2,35c17.3,0,27.7-13.1,27.7-23.1c0-15.5-15.5-21.9-24.9-25.9c-17.6-7.3-32.2-16.1-32.2-33.8
				c0-14.9,11.3-34.4,41.1-34.4c11.9,0,21.3,3,27.7,5.5c1.5,8.5,1.8,12.2,4.6,33.5H451.7z"/>
			<path class="st0" d="M626.9,62c0,37.4-29.8,62.4-58.4,62.4c-28.3,0-58.4-23.7-58.4-62.4c0-41.1,33.5-62,56.6-62
				C604.1,0,626.9,30.1,626.9,62z M533.5,61.4c0,28.9,10.6,56.6,35,56.6c32.9,0,35-43.5,35-56c0-30.7-11.3-55.7-33.8-55.7
				C535.6,6.4,533.5,48.7,533.5,61.4z"/>
			<path class="st0" d="M711.7,1.8V24c19.2-14.9,29.5-22.2,43.8-22.2c21.3,0,31,15.8,31.3,31l0.9,67.5c0.3,14.6,3.7,15.5,14,16.7
				v5.8c-1.5-0.3-6.7-0.6-12.2-0.6c-5.5-0.3-11.6-0.6-15.2-0.6c-6.1,0-12.8,0.3-21.3,0.6v-5.8c7.9-0.9,15.5-1.5,15.5-11.9v-38
				c0-7.3,0.9-30.1-3.3-40.1c-2.1-5.2-8.5-10.9-17-11.3c-10.6-0.3-21.9,5.5-36.5,17l-0.6,71.2c0,11.9,10.6,13.4,19.2,14.3v6.1
				c-5.8-0.9-10.6-1.5-15.2-1.8c-4.3-0.3-8.2-0.3-12.2-0.3c-10.9,0-17.9,0.3-27.4,1.2v-6.1c12.2-0.6,16.4-2.4,16.4-13.1
				c0-28.6,0.6-50.2,0.6-60.2c0-15.2-3-17.9-16.4-24.9v-5.8c10-3.3,20.1-7,30.1-11H711.7z"/>
		</g>
	</g>
</g>
</svg>
